<svg width="80" height="40" viewBox="0 0 80 40" fill="none" xmlns="http://www.w3.org/2000/svg">
<path fill-rule="evenodd" clip-rule="evenodd" d="M31.9164 15.4387V9.53861H30.9512V8.58833H31.9164V8.26461C31.8826 7.83323 31.9357 7.39948 32.0726 6.98882C32.2095 6.57816 32.4275 6.19887 32.7138 5.87323C33.1657 5.45347 33.7639 5.22504 34.3819 5.23623C34.741 5.23656 35.0969 5.30386 35.4311 5.43464L35.2632 6.39537C35.0124 6.28486 34.74 6.23135 34.4659 6.23873C33.4167 6.23873 33.1334 7.16813 33.1334 8.22283V8.58833H34.7701V9.53861H33.1124V15.4387H31.9164ZM30.1717 7.14416C30.3138 7.01823 30.4046 6.84471 30.4267 6.65658C30.4325 6.55397 30.4169 6.45127 30.3808 6.355C30.3446 6.25873 30.2888 6.17098 30.2168 6.09734C30.1447 6.02369 30.0581 5.96575 29.9624 5.9272C29.8667 5.88864 29.764 5.87032 29.6608 5.87338C29.5575 5.87193 29.4551 5.89128 29.3595 5.93026C29.264 5.96924 29.1773 6.02705 29.1048 6.10021C29.0323 6.17337 28.9754 6.26037 28.9375 6.35598C28.8996 6.45159 28.8816 6.55384 28.8844 6.65658C28.9065 6.84471 28.9972 7.01823 29.1394 7.14416C29.2816 7.27008 29.4652 7.33965 29.6555 7.33965C29.8458 7.33965 30.0295 7.27008 30.1717 7.14416ZM30.2903 8.57803H29.0418V15.4284H30.2903V8.57803ZM10.502 5.89421L13.6494 15.4388L14.9399 15.4492L18.3602 5.90465H17.0382L15.4225 10.6143C15.3715 10.7777 15.3204 10.9403 15.2697 11.1022L15.2695 11.1028L15.2689 11.1047L15.2686 11.1054C14.9336 12.1732 14.61 13.2044 14.3734 14.1648C14.0901 13.0474 13.7334 11.8779 13.3242 10.5934L11.8344 5.89421H10.502ZM19.1516 13.1659C19.0441 12.8672 19.0029 12.5487 19.0311 12.2326H23.8782C23.8891 12.0379 23.8891 11.8426 23.8782 11.6478C23.8782 10.3947 23.2802 8.42106 21.0454 8.42106C19.0415 8.42106 17.8245 10.0292 17.8245 12.1178C17.7753 12.5756 17.828 13.0386 17.979 13.4738C18.13 13.909 18.3755 14.3057 18.6981 14.6358C19.0206 14.9658 19.4123 15.221 19.8452 15.3832C20.2782 15.5454 20.7417 15.6107 21.2028 15.5743C21.987 15.5937 22.7665 15.4478 23.49 15.1461L23.2802 14.2585C22.6806 14.5126 22.0326 14.6338 21.3812 14.6136C21.0631 14.636 20.744 14.5894 20.4458 14.4771C20.1476 14.3647 19.8775 14.1893 19.6541 13.9629C19.4306 13.7366 19.2592 13.4646 19.1516 13.1659ZM22.6299 10.6009C22.7 10.8425 22.7178 11.0961 22.6821 11.345H19.0415C19.0549 10.833 19.2568 10.3438 19.6089 9.9703C19.9609 9.59679 20.4386 9.36505 20.951 9.31913C21.2036 9.324 21.4522 9.38222 21.6805 9.48992C21.9088 9.59763 22.1114 9.75238 22.2751 9.94391C22.4388 10.1354 22.5597 10.3594 22.6299 10.6009ZM24.9164 10.7291C24.9164 9.92502 24.9164 9.22536 24.8639 8.64058H25.9131V9.98768H25.9656C26.0777 9.54537 26.3323 9.15177 26.6903 8.86703C27.0484 8.58228 27.4903 8.42206 27.9485 8.41084C28.0669 8.39517 28.1868 8.39517 28.3052 8.41084V9.59086C28.1623 9.57359 28.0179 9.57359 27.875 9.59086C27.4493 9.60972 27.0451 9.78235 26.7381 10.0764C26.431 10.3705 26.2422 10.7659 26.2069 11.1886C26.1724 11.3816 26.1548 11.5773 26.1544 11.7734V15.4283H24.9269L24.9164 10.7291ZM37.1671 7.14416C37.3093 7.01823 37.4 6.84471 37.4221 6.65658C37.428 6.55397 37.4123 6.45127 37.3762 6.355C37.3401 6.25873 37.2842 6.17098 37.2122 6.09734C37.1402 6.02369 37.0536 5.96575 36.9579 5.9272C36.8621 5.88864 36.7594 5.87032 36.6562 5.87338C36.553 5.87193 36.4505 5.89128 36.355 5.93026C36.2594 5.96924 36.1728 6.02705 36.1003 6.10021C36.0277 6.17337 35.9708 6.26037 35.9329 6.35598C35.8951 6.45159 35.877 6.55384 35.8798 6.65658C35.9019 6.84471 35.9927 7.01823 36.1348 7.14416C36.277 7.27008 36.4607 7.33965 36.651 7.33965C36.8413 7.33965 37.025 7.27008 37.1671 7.14416ZM37.2857 8.57803H36.0372V15.4284H37.2857V8.57803ZM39.4803 12.2326C39.4522 12.5487 39.4933 12.8672 39.6009 13.1659C39.7084 13.4646 39.8798 13.7366 40.1033 13.9629C40.3267 14.1893 40.5969 14.3647 40.895 14.4771C41.1932 14.5894 41.5124 14.636 41.8304 14.6136C42.4818 14.6338 43.1298 14.5126 43.7294 14.2585L43.9392 15.1461C43.2156 15.4475 42.4362 15.5934 41.652 15.5743C41.1909 15.6107 40.7274 15.5454 40.2945 15.3832C39.8615 15.221 39.4698 14.9658 39.1473 14.6358C38.8247 14.3057 38.5792 13.909 38.4282 13.4738C38.2773 13.0386 38.2245 12.5756 38.2737 12.1178C38.2737 10.0292 39.4908 8.42106 41.4947 8.42106C43.7294 8.42106 44.3274 10.3947 44.3274 11.6478C44.3393 11.8426 44.3393 12.0379 44.3274 12.2326H39.4803ZM43.1314 11.345C43.1671 11.0961 43.1493 10.8425 43.0791 10.6009C43.0089 10.3594 42.888 10.1354 42.7243 9.94391C42.5607 9.75238 42.358 9.59763 42.1297 9.48992C41.9015 9.38222 41.6528 9.324 41.4003 9.31913C40.8878 9.36505 40.4101 9.59679 40.0581 9.9703C39.706 10.3438 39.5041 10.833 39.4908 11.345H43.1314ZM51.241 13.632V5.38232H50.0135V9.44452C49.7911 9.09809 49.4785 8.81808 49.1091 8.63422C48.7396 8.45035 48.3271 8.3695 47.9152 8.40025C46.247 8.40025 44.8411 9.81002 44.8411 12.0865C44.8411 14.1646 46.1211 15.5639 47.7788 15.5639C48.2566 15.5815 48.7298 15.4643 49.1437 15.226C49.5576 14.9877 49.8955 14.6379 50.1184 14.2168L50.1709 15.4073H51.2935C51.241 14.9375 51.241 14.2381 51.241 13.6326V13.632ZM49.9401 10.8438C49.9779 11.0153 49.9955 11.1905 49.9925 11.366L49.9401 11.3764V12.6191C49.9452 12.8016 49.9276 12.984 49.8876 13.1621C49.799 13.5795 49.5696 13.9542 49.2375 14.224C48.9055 14.4937 48.4907 14.6423 48.0621 14.645C46.7192 14.645 46.0372 13.632 46.0372 12.1074C46.0372 10.5828 46.845 9.45496 48.1355 9.45496C48.5496 9.44999 48.9532 9.58449 49.2808 9.83662C49.6084 10.0888 49.8407 10.4437 49.9401 10.8438ZM55.8568 15.4386C55.8568 15.2195 55.8682 14.9528 55.8803 14.668L55.8804 14.6677C55.8943 14.3417 55.9092 13.9921 55.9092 13.6634V5.38232H57.1367V9.6847C57.3747 9.27228 57.7239 8.93437 58.1448 8.70922C58.5657 8.48407 59.0415 8.38066 59.5183 8.4107C61.218 8.4107 62.4245 9.8309 62.414 11.909C62.414 14.363 60.8718 15.5744 59.34 15.5744C58.8735 15.6024 58.4088 15.4962 58.0014 15.2684C57.594 15.0406 57.261 14.701 57.0423 14.2899L56.9899 15.4177H55.9407L55.8568 15.4386ZM57.1472 12.6922C57.1504 12.8432 57.1679 12.9935 57.1997 13.1412C57.303 13.5562 57.5431 13.9248 57.8816 14.1879C58.2202 14.4511 58.6376 14.5936 59.0672 14.5928C60.3682 14.5928 61.1655 13.5485 61.1655 11.9612C61.1655 10.5932 60.4626 9.41319 59.1301 9.41319C58.6887 9.42209 58.2626 9.57663 57.9189 9.85257C57.5753 10.1285 57.3333 10.5102 57.2312 10.9378C57.188 11.1052 57.1634 11.2768 57.1577 11.4495V12.6922H57.1472ZM65.2683 12.5876L63.768 8.58802L63.705 8.59846H62.3411L64.8801 14.8641C64.9243 14.9672 64.9525 15.0763 64.9641 15.1878C64.9493 15.2898 64.9174 15.3887 64.8696 15.4802C64.632 16.0174 64.273 16.4927 63.8205 16.8691C63.5113 17.1336 63.1556 17.339 62.7713 17.4747L63.086 18.519C63.6583 18.3884 64.1864 18.1113 64.6178 17.7149C65.4677 16.9735 66.0762 15.7726 66.9679 13.423L68.8355 8.53581H67.5135L66.1496 12.5562C66.0364 12.8871 65.9328 13.2369 65.8387 13.5545C65.7932 13.7081 65.75 13.8541 65.7089 13.9869C65.5935 13.5796 65.4257 13.0366 65.2683 12.5876Z" fill="#10347D"/>
<path fill-rule="evenodd" clip-rule="evenodd" d="M44.9857 24.002C44.9857 23.5007 45.4789 22.9577 46.528 22.822C47.7589 22.7057 48.9985 22.9222 50.1162 23.4485L50.7561 20.4724C49.6666 20.0803 48.5153 19.8857 47.3569 19.898C43.7582 19.898 41.2402 21.809 41.2193 24.5346C41.2193 26.55 43.0238 27.6674 44.3667 28.3566C45.7097 29.0458 46.2552 29.4844 46.2448 30.1005C46.2448 31.0403 45.1117 31.458 44.073 31.4685C42.7722 31.495 41.4864 31.1894 40.338 30.5809L39.6875 33.6614C40.9751 34.1592 42.3455 34.4107 43.7268 34.4029C47.5352 34.4029 50.0217 32.5128 50.0217 29.5992C50.0217 27.3843 48.1902 26.4219 46.7248 25.6518C45.7375 25.1331 44.9164 24.7016 44.9333 24.0333L44.9857 24.002ZM27.4231 29.6617L31.2106 20.1171H31.2316H35.0505L29.1647 34.152H25.3248L22.3977 22.9366C22.3722 22.6751 22.2797 22.4245 22.1291 22.2087C21.9785 21.993 21.7747 21.8193 21.5373 21.7044C20.3953 21.1614 19.1901 20.7615 17.9492 20.5139L18.0332 20.1066H24.2127C24.6185 20.1046 25.0115 20.2481 25.3197 20.5108C25.628 20.7735 25.8309 21.1379 25.8914 21.5373L27.4231 29.6617ZM33.5938 34.1417L36.5944 20.1172H40.2245L37.2238 34.1417H33.5938ZM57.44 23.9496L55.5096 29.1709H58.4892L57.44 23.9496ZM55.9438 20.3876C56.2212 20.2011 56.5492 20.1031 56.8839 20.1067L59.9475 20.1171L62.8642 34.1521H59.4964L59.0557 32.0636H54.4079L53.6525 34.1521H49.8861L55.3312 21.151C55.4527 20.8405 55.6664 20.5742 55.9438 20.3876Z" fill="#10347D"/>
</svg>
