<svg id="eXeB8WRTGK11" xmlns="http://www.w3.org/2000/svg" xmlns:xlink="http://www.w3.org/1999/xlink" viewBox="0 0 424 74" shape-rendering="geometricPrecision" text-rendering="geometricPrecision">
<style><![CDATA[
#eXeB8WRTGK13 {animation: eXeB8WRTGK13_s_do 2500ms linear infinite normal forwards}@keyframes eXeB8WRTGK13_s_do { 0% {stroke-dashoffset: 1338} 100% {stroke-dashoffset: 238}}
]]></style>
<path d="M2,72C37,72,36.9999,2,71.9999,2C107,2,107,72,142,72s35-69.99994,70-69.99994s35,69.99994,70,69.99994s35-69.99994,70-69.99994s35,69.99994,70,69.99994" fill="none" stroke="#222" stroke-width="4" stroke-linecap="round"/><path id="eXeB8WRTGK13" d="M2,72C37,72,36.9999,2,71.9999,2C107,2,107,72,142,72s35-69.99994,70-69.99994s35,69.99994,70,69.99994s35-69.99994,70-69.99994s35,69.99994,70,69.99994" fill="none" stroke="#f04a15" stroke-width="4" stroke-linecap="round" stroke-dashoffset="1338" stroke-dasharray="550"/></svg>
