<svg width="80" height="40" viewBox="0 0 80 40" fill="none" xmlns="http://www.w3.org/2000/svg">
<path d="M11.0615 23.8825C10.7048 23.6501 10.3204 23.4646 9.91747 23.3306C9.51194 23.1989 9.08854 23.1326 8.66273 23.1341C8.39853 23.1326 8.13514 23.164 7.87852 23.2277C7.66224 23.2789 7.45627 23.3675 7.26961 23.4896C7.1083 23.5945 6.97264 23.7353 6.87288 23.9012C6.77933 24.0627 6.73146 24.2472 6.7345 24.4344C6.72854 24.5989 6.77022 24.7615 6.85443 24.9021C6.94316 25.0387 7.06354 25.1511 7.20502 25.2295C7.37947 25.3255 7.56558 25.3978 7.75859 25.4447C8.00486 25.5082 8.25432 25.5581 8.50589 25.5944L9.09636 25.6786C9.44004 25.7257 9.77942 25.8007 10.1112 25.9031C10.4401 25.9938 10.7519 26.1392 11.0338 26.3334C11.2888 26.5177 11.5 26.7574 11.652 27.035C11.815 27.3487 11.8945 27.7002 11.8826 28.0546C11.8904 28.462 11.7951 28.8645 11.6058 29.224C11.4226 29.5608 11.1673 29.8517 10.8585 30.0752C10.529 30.3136 10.1604 30.4909 9.76985 30.5991C9.34345 30.7199 8.90249 30.7797 8.45976 30.7768C8.15074 30.777 7.84222 30.7519 7.53716 30.702C7.22473 30.6539 6.91632 30.5819 6.61455 30.4868C6.3158 30.3903 6.02568 30.2683 5.74731 30.122C5.47885 29.9851 5.22789 29.8154 5 29.6168L5.74731 28.5037C5.90768 28.6487 6.08417 28.7742 6.2732 28.8778C6.70774 29.1211 7.17816 29.2917 7.66632 29.383C7.9157 29.4314 8.16895 29.4564 8.42286 29.4578C8.6866 29.4607 8.94976 29.4324 9.20707 29.3736C9.42805 29.3236 9.63981 29.2384 9.83444 29.1211C10.0033 29.0201 10.1481 28.8828 10.2588 28.7188C10.3632 28.5613 10.4179 28.3753 10.4157 28.1856C10.4174 28.022 10.3721 27.8614 10.2852 27.7236C10.1984 27.5857 10.0738 27.4764 9.92669 27.4092C9.47534 27.1972 8.99181 27.0644 8.49666 27.0163L7.83238 26.9227C7.51873 26.8766 7.2099 26.8015 6.90978 26.6982C6.61635 26.5998 6.34175 26.4511 6.0979 26.2585C5.85904 26.0698 5.66379 25.8303 5.52588 25.557C5.3748 25.2362 5.30203 24.8832 5.31368 24.528C5.30741 24.1279 5.39937 23.7325 5.58124 23.3773C5.75493 23.0423 6.00091 22.7513 6.30087 22.5261C6.62365 22.2876 6.98618 22.1102 7.37108 22.0022C7.79731 21.8805 8.2384 21.8207 8.68119 21.8245C9.25363 21.8173 9.82352 21.9026 10.3695 22.0771C10.865 22.24 11.3367 22.4697 11.7719 22.7599L11.0615 23.8825ZM15.6745 24.5467C16.0579 24.5423 16.4381 24.6187 16.7909 24.7712C17.1252 24.9161 17.4243 25.1332 17.6673 25.4073C17.9154 25.695 18.1065 26.0285 18.2301 26.3895C18.3688 26.7955 18.4374 27.2227 18.4331 27.6524C18.4331 27.7366 18.4331 27.8208 18.4331 27.8956C18.4331 27.9704 18.4331 28.0546 18.4331 28.1295H14.1153C14.1462 28.3692 14.2213 28.6008 14.3367 28.8124C14.4382 28.9926 14.5729 29.1514 14.7335 29.2801C14.8874 29.4026 15.0626 29.4946 15.2501 29.5514C15.4449 29.609 15.6469 29.6374 15.8498 29.6356C16.165 29.6378 16.4778 29.5807 16.7724 29.4672C17.0659 29.3604 17.3402 29.2056 17.5843 29.0088L18.2209 29.9443C17.8907 30.2366 17.5043 30.4563 17.0861 30.5897C16.6763 30.7153 16.2503 30.7783 15.8221 30.7768C15.4088 30.7811 14.9985 30.7049 14.6135 30.5523C14.2674 30.4087 13.9535 30.1955 13.6909 29.9255C13.4194 29.6456 13.2088 29.311 13.0728 28.9433C12.921 28.5338 12.8459 28.0992 12.8513 27.6617C12.8463 27.2312 12.9182 26.8034 13.0636 26.3989C13.1965 26.034 13.4004 25.7 13.6632 25.4166C13.9229 25.1408 14.2374 24.924 14.5858 24.7805C14.9458 24.6295 15.3311 24.5501 15.7206 24.5467H15.6745ZM15.6745 25.6973C15.467 25.6927 15.2604 25.7276 15.0656 25.8002C14.8929 25.8661 14.7357 25.9681 14.6043 26.0995C14.4729 26.235 14.3666 26.3935 14.2906 26.5673C14.2052 26.7544 14.1462 26.9528 14.1153 27.1566H17.1507C17.1069 26.7538 16.9353 26.3762 16.6617 26.0808C16.5331 25.9554 16.3813 25.857 16.215 25.7912C16.0488 25.7253 15.8714 25.6934 15.693 25.6973H15.6745ZM22.4464 24.5467C22.8667 24.5415 23.2838 24.621 23.6735 24.7805C24.0322 24.9401 24.3484 25.1837 24.5961 25.4915L23.775 26.3802C23.5855 26.1931 23.3674 26.0383 23.1291 25.9218C22.8915 25.8133 22.6332 25.759 22.3726 25.7628C22.1379 25.7612 21.9054 25.809 21.6899 25.9031C21.4835 25.9944 21.2982 26.1282 21.1455 26.296C20.988 26.4696 20.8657 26.6731 20.7857 26.8947C20.6186 27.3969 20.6284 27.9424 20.8134 28.4382C20.8934 28.6598 21.0157 28.8632 21.1732 29.0369C21.326 29.2045 21.5113 29.3382 21.7176 29.4298C21.9331 29.5239 22.1656 29.5717 22.4003 29.5701C22.6714 29.57 22.9391 29.5093 23.1845 29.3923C23.421 29.2807 23.6389 29.1324 23.8303 28.9527L24.6145 29.8881C24.3641 30.1929 24.0486 30.436 23.6919 30.5991C23.3054 30.7586 22.8914 30.8381 22.4741 30.8329C22.0417 30.8406 21.612 30.7611 21.2101 30.5991C20.8459 30.452 20.5159 30.2297 20.2411 29.9463C19.9663 29.6628 19.7528 29.3244 19.614 28.9527C19.3221 28.1561 19.3221 27.2797 19.614 26.4831C19.7538 26.113 19.9679 25.7765 20.2426 25.4947C20.5174 25.2129 20.8468 24.992 21.2101 24.846C21.6074 24.6615 22.0373 24.5597 22.4741 24.5467H22.4464ZM31.165 28.1108C31.1766 28.5283 31.0978 28.9434 30.9344 29.3269C30.7948 29.6467 30.5868 29.9311 30.3254 30.1594C30.0713 30.3765 29.7762 30.5389 29.4582 30.6365C28.8058 30.8388 28.1086 30.8388 27.4561 30.6365C27.1384 30.5382 26.8434 30.3759 26.5889 30.1594C26.3261 29.9325 26.1179 29.6477 25.98 29.3269C25.8174 28.9431 25.7387 28.5283 25.7493 28.1108V24.6963H27.0318V27.9892C27.0258 28.2371 27.0633 28.4841 27.1425 28.7188C27.2056 28.9026 27.3098 29.0691 27.4469 29.2052C27.575 29.3297 27.7297 29.4226 27.899 29.4765C28.2661 29.5884 28.6575 29.5884 29.0246 29.4765C29.1938 29.4226 29.3485 29.3297 29.4766 29.2052C29.6137 29.0691 29.7179 28.9026 29.7811 28.7188C29.8603 28.4841 29.8978 28.2371 29.8918 27.9892V24.6963H31.1742L31.165 28.1108ZM35.778 24.5467C35.953 24.5319 36.1289 24.5319 36.3039 24.5467C36.4586 24.5746 36.6101 24.6185 36.756 24.6776L36.4977 25.9873C36.3486 25.913 36.1903 25.8595 36.0271 25.8282C35.8633 25.7926 35.6964 25.7738 35.5289 25.7721C35.3365 25.7691 35.1454 25.8041 34.9661 25.875C34.7972 25.9423 34.6458 26.0479 34.5233 26.1837C34.3952 26.3307 34.2979 26.5026 34.2373 26.6889C34.1659 26.9059 34.1316 27.1337 34.1358 27.3624V30.6178H32.8626V24.6963H34.1266V25.3605C34.3076 25.0872 34.5599 24.8702 34.8554 24.7338C35.1672 24.5995 35.504 24.5357 35.8426 24.5467H35.778ZM40.0589 24.5467C40.4423 24.5423 40.8225 24.6187 41.1753 24.7712C41.5095 24.9161 41.8087 25.1332 42.0517 25.4073C42.2996 25.6951 42.4907 26.0286 42.6145 26.3895C42.7532 26.7955 42.8218 27.2227 42.8175 27.6524C42.8175 27.7366 42.8175 27.8208 42.8175 27.8956C42.8175 27.9704 42.8175 28.0546 42.8175 28.1295H38.4997C38.5306 28.3692 38.6057 28.6008 38.7211 28.8124C38.8226 28.9926 38.9572 29.1514 39.1178 29.2801C39.2717 29.4026 39.447 29.4946 39.6345 29.5514C39.8293 29.609 40.0313 29.6374 40.2342 29.6356C40.5494 29.6378 40.8622 29.5807 41.1568 29.4672C41.4503 29.3604 41.7246 29.2056 41.9687 29.0088L42.6053 29.9443C42.275 30.2366 41.8886 30.4563 41.4705 30.5897C41.0606 30.7153 40.6347 30.7783 40.2065 30.7768C39.7932 30.7811 39.3829 30.7049 38.9979 30.5523C38.6518 30.4087 38.3379 30.1955 38.0753 29.9255C37.8038 29.6456 37.5932 29.311 37.4571 28.9433C37.3054 28.5338 37.2303 28.0992 37.2357 27.6617C37.2307 27.2312 37.3026 26.8034 37.4479 26.3989C37.5808 26.034 37.7848 25.7 38.0476 25.4166C38.3073 25.1408 38.6217 24.924 38.9702 24.7805C39.3388 24.6259 39.7338 24.5464 40.1327 24.5467H40.0589ZM40.0589 25.6973C39.8514 25.6927 39.6448 25.7276 39.45 25.8002C39.2772 25.8661 39.1201 25.9681 38.9887 26.0995C38.8572 26.235 38.751 26.3935 38.675 26.5673C38.5897 26.7544 38.5307 26.9528 38.4997 27.1566H41.5351C41.4913 26.7538 41.3197 26.3762 41.0461 26.0808C40.7931 25.8344 40.4558 25.6969 40.105 25.6973H40.0589ZM48.3623 21.8058C48.7316 21.8041 49.1 21.8449 49.4602 21.9274C49.8023 22.0046 50.1339 22.124 50.4474 22.2829C50.7476 22.4354 51.0268 22.6273 51.2777 22.8535C51.5201 23.0732 51.7285 23.3286 51.8959 23.6112L50.7426 24.3876C50.4897 23.9956 50.144 23.674 49.737 23.4522C49.3109 23.2239 48.835 23.108 48.3531 23.1154C47.9397 23.1097 47.5291 23.186 47.1445 23.3399C46.7975 23.4904 46.4838 23.7099 46.2219 23.9854C45.9495 24.27 45.7361 24.6072 45.5945 24.977C45.2888 25.8032 45.2888 26.7139 45.5945 27.5401C45.7361 27.9099 45.9495 28.2471 46.2219 28.5317C46.4836 28.8074 46.7974 29.0269 47.1445 29.1772C47.5291 29.3311 47.9397 29.4074 48.3531 29.4017C48.8213 29.4155 49.2852 29.3085 49.7015 29.0909C50.1178 28.8733 50.4729 28.5522 50.7334 28.1575L51.859 28.9901C51.6762 29.261 51.4591 29.5063 51.2132 29.7197C50.9628 29.9372 50.6871 30.1226 50.392 30.2717C50.0987 30.4227 49.7891 30.5388 49.4694 30.6178C48.5099 30.834 47.5088 30.7591 46.5909 30.4026C46.063 30.1934 45.5832 29.8761 45.1816 29.4706C44.78 29.065 44.4651 28.5798 44.2567 28.0453C43.8189 26.8923 43.8189 25.6155 44.2567 24.4625C44.4651 23.928 44.78 23.4428 45.1816 23.0372C45.5832 22.6316 46.063 22.3143 46.5909 22.1051C47.1661 21.8892 47.7769 21.7876 48.39 21.8058H48.3623ZM55.8908 24.5467C56.3201 24.5407 56.7463 24.6202 57.1455 24.7805C57.5166 24.9308 57.8551 25.1533 58.1419 25.4353C58.4223 25.7155 58.6449 26.0494 58.797 26.4176C59.1129 27.2096 59.1129 28.0952 58.797 28.8872C58.6452 29.2555 58.4225 29.5894 58.1419 29.8694C57.8551 30.1515 57.5166 30.374 57.1455 30.5242C56.3385 30.8427 55.443 30.8427 54.636 30.5242C54.2645 30.3748 53.9258 30.1523 53.6396 29.8694C53.3594 29.5891 53.1368 29.2553 52.9846 28.8872C52.6686 28.0952 52.6686 27.2096 52.9846 26.4176C53.137 26.0496 53.3596 25.7158 53.6396 25.4353C53.9258 25.1525 54.2645 24.9299 54.636 24.7805C55.0467 24.6153 55.486 24.5357 55.9277 24.5467H55.8908ZM55.8908 25.7628C55.6411 25.7605 55.3934 25.8082 55.1619 25.9031C54.9436 25.9922 54.7458 26.126 54.5807 26.296C54.4136 26.4675 54.2818 26.671 54.1932 26.8947C54.0049 27.3915 54.0049 27.9414 54.1932 28.4382C54.2831 28.6612 54.4147 28.8645 54.5807 29.0369C54.7458 29.2068 54.9436 29.3406 55.1619 29.4298C55.6276 29.614 56.1446 29.614 56.6104 29.4298C56.8386 29.3457 57.0468 29.214 57.2216 29.0432C57.3964 28.8724 57.5339 28.6663 57.6252 28.4382C57.8135 27.9414 57.8135 27.3915 57.6252 26.8947C57.537 26.6707 57.4052 26.4671 57.2378 26.296C57.0721 26.1266 56.8744 25.9929 56.6565 25.9031C56.425 25.8082 56.1773 25.7605 55.9277 25.7628H55.8908ZM62.8749 24.5467C63.2286 24.5315 63.5808 24.6026 63.9019 24.754C64.2229 24.9054 64.5035 25.1326 64.7201 25.4166V21.6748H66.0209V30.5804H64.7477V29.8694C64.5438 30.132 64.2856 30.3459 63.9912 30.4962C63.655 30.6605 63.2848 30.7407 62.9118 30.73C62.525 30.7339 62.1415 30.6579 61.7847 30.5068C61.4278 30.3556 61.105 30.1324 60.8359 29.8507C60.5682 29.5677 60.3582 29.2339 60.2178 28.8685C59.9166 28.0607 59.9166 27.1692 60.2178 26.3615C60.3582 25.996 60.5682 25.6623 60.8359 25.3792C61.105 25.0975 61.4278 24.8743 61.7847 24.7232C62.1415 24.572 62.525 24.496 62.9118 24.4999L62.8749 24.5467ZM63.0317 25.7628C62.7779 25.7582 62.5261 25.8092 62.2936 25.9124C62.0827 26.0088 61.8941 26.149 61.7401 26.324C61.586 26.4986 61.4669 26.702 61.3895 26.9227C61.2222 27.4148 61.2287 27.9505 61.4079 28.4382C61.4854 28.6589 61.6044 28.8623 61.7585 29.0369C61.9126 29.2119 62.1011 29.3521 62.3121 29.4485C62.5431 29.5457 62.7908 29.5958 63.0409 29.5958C63.2911 29.5958 63.5388 29.5457 63.7698 29.4485C63.9797 29.3546 64.1682 29.2176 64.3233 29.0462C64.4809 28.8726 64.6032 28.6691 64.6832 28.4475C64.8534 27.9603 64.8534 27.4286 64.6832 26.9414C64.603 26.72 64.4807 26.5165 64.3233 26.3427C64.1679 26.1717 63.9795 26.0348 63.7698 25.9405C63.5479 25.8315 63.3058 25.771 63.0594 25.7628H63.0317ZM70.2372 24.5467C70.6207 24.5423 71.0008 24.6187 71.3536 24.7712C71.6879 24.9161 71.987 25.1332 72.23 25.4073C72.4781 25.695 72.6692 26.0285 72.7928 26.3895C72.9315 26.7955 73.0002 27.2227 72.9958 27.6524C72.9958 27.7366 72.9958 27.8208 72.9958 27.8956C72.9958 27.9704 72.9958 28.0546 72.9958 28.1295H68.678C68.7076 28.3695 68.7828 28.6014 68.8994 28.8124C69.0007 28.9927 69.1354 29.1516 69.2962 29.2801C69.4501 29.4026 69.6253 29.4946 69.8128 29.5514C70.0076 29.609 70.2096 29.6374 70.4125 29.6356C70.7277 29.6378 71.0405 29.5807 71.3351 29.4672C71.6286 29.3604 71.9029 29.2056 72.147 29.0088L72.7836 29.9443C72.4532 30.2363 72.0669 30.4561 71.6488 30.5897C71.239 30.7153 70.813 30.7783 70.3848 30.7768C69.9715 30.7811 69.5612 30.7049 69.1762 30.5523C68.8301 30.4087 68.5162 30.1955 68.2536 29.9255C67.9831 29.6447 67.7727 29.3104 67.6355 28.9433C67.4837 28.5338 67.4086 28.0992 67.4141 27.6617C67.409 27.2312 67.4809 26.8034 67.6263 26.3989C67.7592 26.034 67.9631 25.7 68.226 25.4166C68.4856 25.1408 68.8001 24.924 69.1486 24.7805C69.5028 24.632 69.8816 24.5527 70.2649 24.5467H70.2372ZM73.6047 30.6271V30.3091H73.7247H73.4202H73.5401V30.6084L73.6047 30.6271ZM74.1952 30.6271V30.3091H74.1029L73.9922 30.5523L73.8815 30.3091H73.7892V30.6646H73.8538V30.3091L73.9553 30.543H74.0199L74.1214 30.3091V30.5804L74.1952 30.6271ZM70.2095 25.6973C70.002 25.6927 69.7955 25.7276 69.6006 25.8002C69.4279 25.8661 69.2708 25.9681 69.1393 26.0995C69.008 26.2352 68.9018 26.3936 68.8256 26.5673C68.7403 26.7544 68.6814 26.9528 68.6504 27.1566H71.6857C71.6419 26.7538 71.4703 26.3762 71.1967 26.0808C70.9392 25.8298 70.5944 25.692 70.2372 25.6973H70.2095Z" fill="#F79E1B"/>
<path d="M15.2775 18.4088H13.8474V11.0187L11.2641 17.5669H9.74184L7.15855 11.131V18.4463H5.72852V9.46585H7.89664L10.4707 15.8831L13.0448 9.46585H15.2775V18.4088ZM22.8059 18.4088H21.4866V17.6698C21.2758 17.9438 21.008 18.1674 20.7024 18.3246C20.3547 18.4949 19.9719 18.5783 19.586 18.5679C19.1837 18.5687 18.7856 18.4861 18.4159 18.3252C18.0462 18.1644 17.7129 17.9286 17.4363 17.6324C17.1571 17.3388 16.9377 16.9923 16.7905 16.6128C16.478 15.7748 16.478 14.8501 16.7905 14.0122C16.9377 13.6326 17.1571 13.2861 17.4363 12.9925C17.7129 12.6963 18.0462 12.4606 18.4159 12.2997C18.7856 12.1389 19.1837 12.0563 19.586 12.0571C19.972 12.0459 20.355 12.1293 20.7024 12.3003C21.0074 12.4586 21.2749 12.682 21.4866 12.9551V12.2067H22.8059V18.4088ZM19.7336 13.3667C19.4701 13.3637 19.209 13.4179 18.9679 13.5257C18.7505 13.6243 18.5557 13.7677 18.3959 13.9467C18.2368 14.1298 18.1145 14.3427 18.036 14.5735C17.868 15.0674 17.868 15.6043 18.036 16.0983C18.1145 16.329 18.2368 16.5419 18.3959 16.725C18.5555 16.9043 18.7503 17.0477 18.9679 17.146C19.2076 17.2473 19.4647 17.2995 19.7244 17.2995C19.9841 17.2995 20.2412 17.2473 20.4809 17.146C20.6973 17.0497 20.8919 16.9096 21.0529 16.7344C21.2154 16.552 21.3408 16.3391 21.422 16.1076C21.5986 15.6023 21.5986 15.0507 21.422 14.5454C21.3408 14.3139 21.2154 14.101 21.0529 13.9186C20.8919 13.7434 20.6973 13.6033 20.4809 13.507C20.2413 13.4069 19.9835 13.3591 19.7244 13.3667H19.7336ZM28.8766 13.8064L28.5353 13.6286C28.3882 13.563 28.2372 13.5068 28.0832 13.4603C27.9105 13.4064 27.7349 13.3627 27.5573 13.3293C27.3715 13.2964 27.1831 13.2807 26.9945 13.2825C26.6978 13.2657 26.4028 13.3372 26.1457 13.4883C26.0527 13.5416 25.9755 13.6192 25.9219 13.7129C25.8684 13.8067 25.8406 13.9132 25.8413 14.0215C25.8386 14.1188 25.8678 14.2142 25.9243 14.2928C25.9807 14.3677 26.0533 14.4285 26.1365 14.4706C26.2358 14.5215 26.3413 14.5593 26.4502 14.5828L26.8469 14.6576L27.4743 14.7512C28.0323 14.8094 28.5661 15.0124 29.0242 15.3405C29.2063 15.4851 29.3516 15.6719 29.4479 15.8851C29.5442 16.0983 29.5887 16.3317 29.5778 16.566C29.582 16.8484 29.5187 17.1276 29.3933 17.3798C29.2645 17.6301 29.0816 17.8475 28.8582 18.0159C28.5964 18.2058 28.3024 18.3453 27.9909 18.4275C27.609 18.5317 27.2147 18.5821 26.8192 18.5772H26.2749C26.0541 18.5561 25.8352 18.5186 25.6198 18.465C25.3771 18.4028 25.1396 18.3215 24.9094 18.2217C24.6634 18.1168 24.4311 17.9817 24.2175 17.8195L24.8356 16.8092C24.95 16.8985 25.0702 16.9798 25.1954 17.0524C25.3337 17.1313 25.4789 17.197 25.6291 17.2489C25.8033 17.3107 25.9823 17.3576 26.1642 17.3892C26.3839 17.4236 26.6061 17.4392 26.8284 17.436C27.1845 17.4565 27.5398 17.3857 27.8618 17.2302C27.9655 17.1809 28.0534 17.103 28.1154 17.0054C28.1774 16.9077 28.211 16.7944 28.2124 16.6782C28.2111 16.5908 28.1875 16.5051 28.1438 16.4297C28.1002 16.3543 28.038 16.2916 27.9632 16.2479C27.7185 16.1114 27.4482 16.0285 27.1698 16.0047L26.5332 15.9205C25.9767 15.8738 25.4451 15.666 25.0017 15.3218C24.83 15.1739 24.6935 14.9885 24.6024 14.7795C24.5114 14.5705 24.4681 14.3434 24.4758 14.1151C24.4718 13.8307 24.5317 13.5492 24.6511 13.2919C24.7669 13.0492 24.9376 12.8376 25.1493 12.6745C25.3848 12.4959 25.6506 12.3627 25.9335 12.2816C26.2726 12.1846 26.6237 12.1373 26.9761 12.1413C27.4304 12.1378 27.8832 12.1944 28.3231 12.3096C28.7143 12.4093 29.0879 12.5702 29.4302 12.7867L28.8766 13.8064ZM35.1503 13.4883H32.8069V16.1637C32.8025 16.3413 32.8274 16.5184 32.8807 16.6876C32.9216 16.8199 32.9909 16.9413 33.0837 17.0431C33.1678 17.135 33.2721 17.2056 33.3882 17.2489C33.5095 17.293 33.6375 17.3152 33.7664 17.3143C33.9811 17.3127 34.1937 17.2715 34.3938 17.1927C34.6 17.1133 34.7978 17.013 34.9843 16.8934L35.5101 17.9598C35.2531 18.1339 34.9777 18.2782 34.689 18.3901C34.3584 18.5136 34.008 18.5739 33.6557 18.5679C33.3634 18.5861 33.0704 18.5442 32.7945 18.4445C32.5186 18.3448 32.2654 18.1895 32.0504 17.9879C31.842 17.7403 31.6841 17.4532 31.5859 17.1433C31.4877 16.8334 31.4512 16.5068 31.4784 16.1824V13.4696H30.2698V12.2535H31.4784V10.3826H32.8069V12.2535H35.1319L35.1503 13.4883ZM39.219 12.1132C39.6183 12.1083 40.0143 12.1879 40.3815 12.3471C40.7335 12.4969 41.0485 12.7237 41.3041 13.0112C41.5637 13.3095 41.7642 13.6557 41.8946 14.0309C42.0148 14.4561 42.0616 14.8992 42.0329 15.3405C42.0329 15.4247 42.0329 15.5089 42.0329 15.5931C42.0329 15.6773 42.0329 15.7615 42.0329 15.8363H37.5491C37.581 16.086 37.6593 16.3272 37.7797 16.5473C37.886 16.735 38.027 16.9001 38.1949 17.0337C38.3545 17.1603 38.5359 17.2555 38.73 17.3143C38.9305 17.3759 39.1387 17.4074 39.3482 17.4079C39.6631 17.4078 39.9756 17.3508 40.2708 17.2395C40.5745 17.1283 40.8582 16.9671 41.1103 16.7624L41.7654 17.6979C41.4219 18.0027 41.0198 18.2321 40.5844 18.3714C40.1597 18.5023 39.7182 18.5685 39.2743 18.5679C38.8452 18.5724 38.4191 18.493 38.0196 18.334C37.6522 18.1872 37.319 17.9642 37.0417 17.6792C36.7626 17.3873 36.5458 17.0402 36.4051 16.6595C36.2474 16.2351 36.1692 15.7846 36.1744 15.3312C36.1695 14.8816 36.2445 14.4348 36.3958 14.0122C36.5325 13.6338 36.7427 13.2871 37.014 12.9925C37.2731 12.7091 37.5872 12.483 37.9366 12.3284C38.3411 12.165 38.7746 12.0885 39.2098 12.1038L39.219 12.1132ZM39.219 13.3106C39.0048 13.3082 38.7921 13.3463 38.5916 13.4228C38.4154 13.4916 38.2552 13.5968 38.1211 13.7315C37.9865 13.87 37.8772 14.0315 37.7982 14.2086C37.7123 14.4021 37.6533 14.6067 37.6229 14.8167H40.769C40.7246 14.3993 40.5463 14.0082 40.2615 13.7035C40.1203 13.5617 39.9512 13.4517 39.7652 13.3808C39.5791 13.3099 39.3805 13.2796 39.1821 13.2919L39.219 13.3106ZM46.6921 12.1132C46.8732 12.098 47.0553 12.098 47.2364 12.1132C47.3972 12.1406 47.5549 12.1845 47.7069 12.2442L47.3933 13.5725C47.2389 13.4934 47.0742 13.4367 46.9043 13.4041C46.7343 13.3681 46.5612 13.3493 46.3876 13.348C46.1601 13.3383 45.9332 13.3798 45.7233 13.4696C45.5508 13.5396 45.3963 13.6483 45.2713 13.7877C45.139 13.9403 45.0386 14.1185 44.976 14.3115C44.8998 14.5373 44.8624 14.7746 44.8653 15.0131V18.3901H43.546V12.2629H44.8561V12.9551C45.0457 12.6742 45.3072 12.451 45.6126 12.3096C45.938 12.1649 46.2908 12.0946 46.646 12.1038L46.6921 12.1132ZM51.2128 12.1132C51.6489 12.108 52.0817 12.1907 52.486 12.3564C52.8726 12.5168 53.2146 12.7705 53.4824 13.0954L52.6336 14.0309C52.4355 13.8391 52.2081 13.6812 51.9601 13.5632C51.7141 13.4494 51.4463 13.392 51.1759 13.3948C50.9321 13.3912 50.6902 13.439 50.4655 13.5351C50.2492 13.6272 50.0544 13.7642 49.8935 13.9373C49.7288 14.1161 49.6003 14.3259 49.5152 14.5547C49.3329 15.0719 49.3329 15.6372 49.5152 16.1544C49.5992 16.3866 49.7278 16.5996 49.8935 16.7811C50.0546 16.9541 50.2494 17.091 50.4655 17.1834C50.6902 17.2795 50.9321 17.3273 51.1759 17.3237C51.4571 17.3249 51.7348 17.2609 51.9878 17.1366C52.2344 17.0202 52.4617 16.8656 52.6613 16.6782L53.4732 17.6137C53.2024 17.9354 52.8612 18.1885 52.4768 18.3527C52.0757 18.5184 51.6459 18.6011 51.2128 18.5959C50.7646 18.6033 50.3193 18.5207 49.9027 18.3527C49.5261 18.2005 49.1848 17.9705 48.9005 17.6774C48.6162 17.3843 48.3951 17.0345 48.2513 16.6502C47.948 15.8235 47.948 14.9137 48.2513 14.087C48.3951 13.7027 48.6162 13.3528 48.9005 13.0597C49.1848 12.7667 49.5261 12.5367 49.9027 12.3845C50.3053 12.2085 50.7376 12.1132 51.1759 12.1038L51.2128 12.1132ZM60.485 18.4088H59.1657V17.6698C58.9549 17.9438 58.6871 18.1674 58.3815 18.3246C58.0338 18.4949 57.651 18.5783 57.2651 18.5679C56.8628 18.5687 56.4647 18.4861 56.095 18.3252C55.7253 18.1644 55.392 17.9286 55.1154 17.6324C54.8362 17.3388 54.6168 16.9923 54.4696 16.6128C54.1571 15.7748 54.1571 14.8501 54.4696 14.0122C54.6168 13.6326 54.8362 13.2861 55.1154 12.9925C55.392 12.6963 55.7253 12.4606 56.095 12.2997C56.4647 12.1389 56.8628 12.0563 57.2651 12.0571C57.6511 12.0459 58.0341 12.1293 58.3815 12.3003C58.6865 12.4586 58.954 12.682 59.1657 12.9551V12.2067H60.485V18.4088ZM57.4127 13.3667C57.1492 13.3637 56.8881 13.4179 56.647 13.5257C56.4295 13.6243 56.2347 13.7677 56.0749 13.9467C55.9158 14.1298 55.7936 14.3427 55.7151 14.5735C55.5471 15.0674 55.5471 15.6043 55.7151 16.0983C55.7936 16.329 55.9158 16.5419 56.0749 16.725C56.2347 16.9041 56.4295 17.0474 56.647 17.146C56.8867 17.2473 57.1438 17.2995 57.4035 17.2995C57.6632 17.2995 57.9203 17.2473 58.16 17.146C58.3764 17.0497 58.571 16.9096 58.732 16.7344C58.8945 16.552 59.0199 16.3391 59.1011 16.1076C59.2777 15.6023 59.2777 15.0507 59.1011 14.5454C59.0199 14.3139 58.8945 14.101 58.732 13.9186C58.5708 13.7436 58.3762 13.6035 58.16 13.507C57.9261 13.4095 57.6749 13.3617 57.4219 13.3667H57.4127ZM65.4947 12.1038C65.6758 12.0887 65.8579 12.0887 66.0391 12.1038C66.1999 12.1313 66.3575 12.1752 66.5096 12.2348L66.1959 13.5632C66.0415 13.4841 65.8769 13.4274 65.7069 13.3948C65.537 13.3588 65.3639 13.34 65.1903 13.3387C64.9912 13.3374 64.7937 13.3755 64.609 13.4509C64.4365 13.5209 64.2819 13.6296 64.1569 13.769C64.0247 13.9216 63.9243 14.0998 63.8617 14.2928C63.7855 14.5185 63.7481 14.7558 63.751 14.9944V18.3714H62.4317V12.2629H63.7418V12.9551C63.9313 12.6742 64.1929 12.451 64.4983 12.3096C64.8152 12.1692 65.1581 12.099 65.5039 12.1038H65.4947ZM69.831 12.1038C70.217 12.0926 70.5999 12.1761 70.9473 12.3471C71.2523 12.5053 71.5198 12.7287 71.7315 13.0019V9.1665H73.0508V18.3995H71.7315V17.6605C71.5205 17.9343 71.2528 18.1578 70.9473 18.3153C70.5997 18.4856 70.2169 18.569 69.831 18.5585C69.4287 18.5593 69.0305 18.4767 68.6608 18.3159C68.2912 18.155 67.9579 17.9192 67.6813 17.6231C67.4021 17.3295 67.1826 16.983 67.0355 16.6034C66.723 15.7655 66.723 14.8407 67.0355 14.0028C67.1826 13.6232 67.4021 13.2768 67.6813 12.9832C67.9579 12.687 68.2912 12.4512 68.6608 12.2904C69.0305 12.1295 69.4287 12.0469 69.831 12.0477V12.1038ZM74.6008 17.8382C74.6525 17.8274 74.7059 17.8274 74.7577 17.8382C74.8057 17.8575 74.8496 17.8861 74.8868 17.9224C74.9218 17.9572 74.95 17.9985 74.9698 18.044C74.9896 18.0914 74.9998 18.1423 74.9998 18.1937C74.9998 18.2451 74.9896 18.296 74.9698 18.3434C74.95 18.3889 74.9218 18.4301 74.8868 18.465C74.8494 18.5011 74.8056 18.5297 74.7577 18.5492C74.7059 18.5603 74.6525 18.5603 74.6008 18.5492C74.5241 18.5483 74.4492 18.5248 74.3854 18.4816C74.3215 18.4385 74.2713 18.3774 74.241 18.3059C74.2212 18.2586 74.211 18.2077 74.211 18.1563C74.211 18.1048 74.2212 18.0539 74.241 18.0066C74.2824 17.9124 74.3586 17.8385 74.4532 17.8008C74.5106 17.8009 74.5672 17.8137 74.6193 17.8382H74.6008ZM74.6008 18.5304H74.7207L74.813 18.465C74.8682 18.4073 74.8991 18.3302 74.8991 18.2498C74.8991 18.1695 74.8682 18.0923 74.813 18.0347L74.7207 17.9692H74.6008H74.4809L74.3886 18.0347C74.3334 18.0923 74.3025 18.1695 74.3025 18.2498C74.3025 18.3302 74.3334 18.4073 74.3886 18.465L74.4809 18.5304H74.6008ZM74.6008 18.044C74.6366 18.0312 74.6757 18.0312 74.7115 18.044C74.7174 18.0572 74.7204 18.0716 74.7204 18.0861C74.7204 18.1006 74.7174 18.115 74.7115 18.1282C74.7208 18.1523 74.7208 18.179 74.7115 18.203C74.6845 18.2117 74.6555 18.2117 74.6285 18.203L74.7484 18.3434H74.6562L74.5455 18.203V18.3434H74.4716V17.9785L74.6008 18.044ZM69.9601 13.3574C69.6966 13.3543 69.4355 13.4085 69.1944 13.5164C68.9769 13.6149 68.7821 13.7583 68.6224 13.9373C68.4632 14.1205 68.341 14.3334 68.2625 14.5641C68.0945 15.0581 68.0945 15.5949 68.2625 16.0889C68.341 16.3196 68.4632 16.5325 68.6224 16.7157C68.782 16.8949 68.9768 17.0383 69.1944 17.1366C69.4341 17.238 69.6912 17.2902 69.9509 17.2902C70.2106 17.2902 70.4677 17.238 70.7074 17.1366C70.9238 17.0403 71.1184 16.9003 71.2794 16.725C71.4418 16.5427 71.5673 16.3297 71.6485 16.0983C71.8251 15.5929 71.8251 15.0414 71.6485 14.536C71.5673 14.3046 71.4418 14.0916 71.2794 13.9093C71.1182 13.7342 70.9236 13.5942 70.7074 13.4977C70.4843 13.4082 70.2462 13.3637 70.0063 13.3667L69.9601 13.3574Z" fill="#EB001B"/>
</svg>
