<svg width="28" height="10" viewBox="0 0 28 10" fill="none" xmlns="http://www.w3.org/2000/svg">
<path fill-rule="evenodd" clip-rule="evenodd" d="M13.7975 0.659222L11.9357 9.36335H9.68402L11.546 0.659222H13.7975ZM23.2708 6.27952L24.4564 3.01072L25.1381 6.27952H23.2708ZM25.7841 9.36335H27.8664L26.0472 0.659222H24.1267C23.6938 0.659222 23.329 0.910333 23.1672 1.29769L19.7887 9.36335H22.1536L22.6228 8.06324H25.5114L25.7841 9.36335ZM19.9057 6.52152C19.916 4.22468 16.7308 4.09695 16.7518 3.07092C16.7585 2.75901 17.056 2.4267 17.7065 2.34214C18.0289 2.30036 18.9187 2.26669 19.9275 2.73129L20.322 0.884984C19.7798 0.688928 19.0831 0.5 18.2157 0.5C15.9897 0.5 14.4238 1.68268 14.411 3.37728C14.3965 4.63046 15.5297 5.32894 16.3812 5.7462C17.2597 6.17297 17.554 6.44666 17.5497 6.82749C17.5433 7.4117 16.849 7.67014 16.2028 7.67984C15.07 7.69746 14.4139 7.37387 13.8903 7.12969L13.482 9.03798C14.0084 9.27919 14.9797 9.48891 15.9848 9.5C18.3517 9.5 19.8992 8.33118 19.9057 6.52152ZM10.5799 0.659222L6.9315 9.36335H4.55149L2.75569 2.4166C2.64716 1.98964 2.55211 1.83259 2.22099 1.65238C1.67955 1.3581 0.785812 1.08302 0 0.911719L0.0530739 0.659222H3.8847C4.37246 0.659222 4.81191 0.984201 4.9238 1.54603L5.8724 6.58331L8.21439 0.659222H10.5799Z" fill="#1A1F71"/>
</svg>
