<?xml version="1.0" standalone="no"?>
<!DOCTYPE svg PUBLIC "-//W3C//DTD SVG 20010904//EN"
 "http://www.w3.org/TR/2001/REC-SVG-20010904/DTD/svg10.dtd">
<svg version="1.0" xmlns="http://www.w3.org/2000/svg"
 width="280.000000pt" height="280.000000pt" viewBox="0 0 280.000000 280.000000"
 preserveAspectRatio="xMidYMid meet">
<metadata>
Created by potrace 1.14, written by Peter Selinger 2001-2017
</metadata>
<g transform="translate(0.000000,280.000000) scale(0.100000,-0.100000)"
fill="#000000" stroke="none">
<path d="M203 2021 c-79 -36 -154 -176 -187 -350 -22 -114 -22 -427 0 -542 31
-166 105 -305 183 -346 l44 -23 836 0 c532 0 849 4 872 10 37 10 839 604 846
627 5 14 -790 613 -837 629 -27 10 -224 13 -875 13 -804 1 -842 0 -882 -18z
m581 -99 c2 -4 -2 -22 -9 -40 -26 -60 -103 -66 -150 -10 -43 51 -36 58 64 58
50 0 92 -3 95 -8z m1658 -401 c-10 -58 -12 -183 -4 -217 l9 -41 -235 -177
c-129 -97 -239 -173 -243 -169 -17 17 -59 147 -80 245 -24 118 -29 311 -10
418 15 84 58 225 82 273 l20 37 232 -176 c156 -119 231 -182 229 -193z m-2035
320 c76 -35 134 -152 118 -238 -19 -103 -77 -157 -162 -150 -65 4 -112 39
-143 103 -56 115 -22 248 75 290 41 18 63 17 112 -5z m1163 -103 c71 -49 95
-167 45 -226 -54 -64 -126 -63 -184 3 -42 48 -56 100 -42 152 23 85 110 119
181 71z m-480 -134 c43 -37 60 -75 60 -134 0 -44 -5 -56 -29 -81 -78 -77 -201
3 -201 132 0 33 6 47 34 75 43 43 90 46 136 8z m-369 -193 c43 -43 41 -101 -5
-147 -42 -42 -82 -45 -117 -8 -44 47 -22 138 42 171 35 19 47 16 80 -16z m119
-245 c19 -24 8 -61 -18 -64 -39 -6 -80 47 -55 71 12 12 60 7 73 -7z m493 3
c103 -28 180 -169 151 -276 -6 -23 -7 -23 -205 -23 l-199 0 -11 28 c-26 65 12
177 78 231 58 48 114 60 186 40z m-905 -55 c46 -52 18 -144 -44 -144 -37 0
-84 50 -84 90 0 83 73 114 128 54z"/>
</g>
</svg>
