<svg width="24" height="24" viewBox="0 0 24 24" fill="none" xmlns="http://www.w3.org/2000/svg">
<path d="M22.7147 12.0004C22.7147 13.4074 22.4376 14.8007 21.8991 16.1006C21.3607 17.4005 20.5715 18.5817 19.5766 19.5766C18.5816 20.5715 17.4005 21.3607 16.1006 21.8991C14.8007 22.4376 13.4074 22.7147 12.0004 22.7147C10.5934 22.7147 9.20015 22.4376 7.90024 21.8991C6.60032 21.3607 5.41919 20.5715 4.42427 19.5766C3.42936 18.5816 2.64015 17.4005 2.10171 16.1006C1.56327 14.8007 1.28613 13.4074 1.28613 12.0004C1.28613 10.5934 1.56327 9.20015 2.10171 7.90024C2.64015 6.60032 3.42936 5.41918 4.42428 4.42427C5.41919 3.42936 6.60033 2.64015 7.90024 2.10171C9.20016 1.56326 10.5934 1.28613 12.0004 1.28613C13.4074 1.28613 14.8007 1.56327 16.1006 2.10171C17.4005 2.64016 18.5817 3.42936 19.5766 4.42428C20.5715 5.41919 21.3607 6.60033 21.8991 7.90025C22.4376 9.20016 22.7147 10.5934 22.7147 12.0004L22.7147 12.0004Z" stroke="#FBD2C5" stroke-width="2" stroke-linecap="round" stroke-linejoin="round"/>
<path d="M12.0004 1.28613C13.4074 1.28613 14.8007 1.56327 16.1006 2.10171C17.4005 2.64015 18.5817 3.42936 19.5766 4.42428C20.5715 5.41919 21.3607 6.60032 21.8991 7.90024C22.4376 9.20016 22.7147 10.5934 22.7147 12.0004" stroke="#F04A15" stroke-width="2" stroke-linecap="round" stroke-linejoin="round"/>
</svg>
